<?xml version="1.0" encoding="UTF-8"?>
<svg width="100" height="100" version="1.1" viewBox="0 0 26.46 26.46" xmlns="http://www.w3.org/2000/svg">
  <g transform="translate(-37.59 -117.5)">
    <ellipse cx="50.82" cy="130.7" rx="13.03" ry="13.03" fill="#223643" stroke="#1a2243" stroke-width=".3897"/>
    <g transform="matrix(.3897 0 0 .3897 23.08 87.65)" fill="#fff">
      <g transform="matrix(1.013 0 0 1.013 -.5069 -1.512)" fill="#fff">
        <path d="m84.4 107c0.6299-1.641 0.9714-1.924 0.9714-1.924 1.811-1.272 5.785-4.056 8.267-1.672 4.657 4.472-0.3071 8.938-4.427 10.89-1.566 0.7513-3.006-0.4232-4.091-1.391 0.4165-0.4455 0.833-0.8911 1.249-1.337 0.8618 0.5318 3.385 1.462 4.411 1.11 1.811-0.6219 3.133-2.722 3.071-4.385-0.6314-4.389-3.15-3.994-6.474-2.831-1.145 0.3952-1.906 0.97-2.977 1.539z"/>
        <path d="m78.79 104.1c3.906-0.4926 6.916 1.568 6.089 4.468-0.9632 3.38-1.428 6.681-2.412 10.09-2.354 8.151-7.236 16.65-15.64 19.78-4.032 1.413-11.74-1.022-11.74-1.022l4.127-1.203s9.747 3.698 16.78-5.947c4.445-6.093 6.246-13.77 7.356-21.11 0.5208-3.445-4.395-4.102-7.076-3.34-3.852 1.095-7.816 1.459-11.82 1.456-3.922-3e-3 -7.948 0.2171-11.64 1.67 5.021-4.652 12.36-2.551 18.45-3.57"/>
        <path d="m58.49 97c-3.826 5.793-8.772 11.01-10.6 18.15-0.948 2.964-0.9201 6.954 1.537 8.987 2.543 1.896 5.729 1.979 8.676 2.055 3.514-6.3e-4 6.993-0.9101 10.21-2.48 2.695-1.038 5.435-1.915 8.174-2.793-6.35 4.942-14.06 7.629-21.77 7.66-3.114-0.0927-6.585-0.8532-8.724-3.627-1.888-2.682-1.662-6.413-0.7097-9.473 1.768-6.134 5.746-10.98 9.511-15.66 1.04-1.209 2.234-2.348 3.697-2.82z"/>
        <path d="m62.53 107.9c-2.098 1.333-3.565 3.586-3.418 4.785 0.2692 2.2 6.259 1.186 7.834-1.107l-0.2353 1.845s-5.273 2.316-6.923 2.154c-7.239-0.7086 1.058-7.667 3.607-9.075 0.03123-0.0436-0.6848 0.8846-0.8643 1.398z"/>
        <path d="m70.68 106.6-0.3025 0.7959s-4.692 1.734-3.378 4.311c1.812 3.555 6.524 1.426 8.018-0.2579l-0.5689 1.808c-3.228 1.199-5.992 2.973-7.616 0.9743-3.907-4.885 3.847-7.631 3.847-7.631z"/>
        <path d="m75.5 116.3s-0.707-5.453-0.7158-8.195c-0.01483-4.638 0.1748-9.329 1.122-13.87 0.8787-4.212 4.19-12.21 4.19-12.21l1.417-0.81s-2.573 6.003-3.493 9.128c-0.9696 3.29-1.83 6.652-2.121 10.07-0.343 4.035 0.1327 8.103 0.4609 12.14 0.06364 0.7827 0.2921 2.338 0.2921 2.338l-1.153 1.409z"/>
        <path d="m67.28 117.7c5.291-1.778 11.98-0.1347 17.71-0.388 5.175-0.2288 16.62-1.988 16.62-1.988l-1.232 1.462c-4.207 0.9864-6.055 1.165-9.113 1.536-4.7 0.5698-7.799 0.463-12.47 0.3056-4.275-0.144-8.73-0.5652-12.82 0.5756 0.3389-0.5814 0.888-0.9906 1.312-1.503z"/>
        <path d="m58.27 93.65c-0.09553-0.3682-0.2575-0.7114-0.394-1.063-0.1991-0.4657-0.5212-0.8606-0.8915-1.149-0.4995-0.3063-1.106-0.2561-1.557 0.05648 0.01824-0.1009 0.1403-0.3052 0.2021-0.4444 0.2403-0.408 0.646-0.6197 1.036-0.7877 0.3223-0.08322 0.6786-0.1462 1.004 0.02838 0.3602 0.1735 0.6573 0.5015 0.9046 0.8509 0.2809 0.3832 0.4115 0.8639 0.5932 1.308 0.01749 0.1057 0.1496 0.2599 0.03379 0.3214-0.3102 0.293-0.6204 0.5859-0.9305 0.8789z"/>
        <path d="m59.2 93.04c0.132-0.9825 0.1312-1.977 0.1406-2.967-0.03136-0.5084-0.03474-1.021-0.1489-1.52-0.01255-0.2473-0.1878-0.524-0.1107-0.7511 0.3873-0.3065 0.7674-0.624 1.152-0.9349 0.03891 0.2962 0.1296 0.5832 0.1779 0.8783 0.08484 0.3856 0.1022 0.7802 0.1183 1.173 0.04514 0.5074-0.0043 1.015 0.0031 1.523-0.01135 0.5581-0.06129 1.114-0.1113 1.67-0.407 0.3098-0.8138 0.6198-1.221 0.9295z"/>
        <path d="m59.81 93.46c0.607-0.844 0.5465-1.984 1.141-2.834 0.5625-0.7943 1.577-1.249 2.526-1.011 0.2454 0.04951 0.6611 0.2564 0.6611 0.2564l-0.8624 1.093s-0.8355-1.149-1.311-0.1676c-0.3324 0.5821-0.5931 1.202-0.8831 1.806-0.4239 0.2857-0.8479 0.5713-1.272 0.857z"/>
        <path d="m89.82 101.4c0.2363-0.5873 0.3534-1.217 0.3705-1.849 0.1485-0.9809 0.08016-2.025 0.0922-2.935-0.0059-0.2763-0.06158-0.5488-0.09924-0.8207 0.1404-0.2494 0.3937-0.4106 0.611-0.5889 0.1461-0.07898 0.2756-0.2718 0.4593-0.2238 0.2071-0.03863 0.15 0.2116 0.1956 0.3448 0.1209 0.596 0.06404 1.205 0.07945 1.808 0.02518 0.8404-0.05851 1.604-0.1294 2.376-0.05026 0.4177-0.1506 0.8284-0.2834 1.227-0.1935 0.2149-0.5037 0.2495-0.7412 0.4001-0.185 0.0869-0.3699 0.1738-0.5549 0.2606z"/>
        <path d="m90.64 101.4s1.56-2.68 2.527-3.581c0.8051-0.7495 2.035-1.234 2.035-1.234l-0.6315 0.8145s-0.9043 0.8113-1.364 1.298c-0.6916 0.7309-1.266 1.877-1.266 1.877z"/>
        <path d="m88.63 102.1c0.1587-1.115-1.083-2.651-1.774-2.654-0.3058-0.0076-0.6341-0.0127-0.9061 0.1488 0.3568-0.2874 0.7132-0.5754 1.07-0.8631 0.8628-0.2526 1.397-0.1105 1.902 0.5152 0.3329 0.4452 0.7817 0.8308 0.9485 1.378 0.05456 0.28 0.05415 0.5729 0.0175 0.8558-0.4192 0.2062-0.8387 0.4124-1.258 0.6186z"/>
        <path d="m44.37 103.5c0.4829-1.382 0.9657-2.235 1.449-3.617 3.507-2.095 7.372-3.967 11.51-3.57 4.351 0.3973 8.835-1.365 12.21-4.362 2.838-2.354 5.205-5.253 7.85-7.831-1.296 2.237-2.423 4.611-4.361 6.331-3.88 4.49-9.042 8.49-15.05 8.414-5.934 0.1152-9.487 1.298-13.61 4.635z"/>
        <path d="m63.8 104.1c1.272-0.9788 2.183-2.324 3.325-3.436 1.438-0.9445 2.905-1.41 4.358-2.002-0.6009 0.5581-1.527 1.68-1.527 1.68-1.452 2.125-4.076 2.924-6.156 3.757z"/>
      </g>
    </g>
  </g>
</svg>
